<?xml version="1.0" encoding="utf-8"?>
<!-- Generator: Adobe Illustrator 22.0.0, SVG Export Plug-In . SVG Version: 6.00 Build 0)  -->
<svg version="1.1" id="Layer_1" xmlns="http://www.w3.org/2000/svg" xmlns:xlink="http://www.w3.org/1999/xlink" x="0px" y="0px"
	 viewBox="0 0 763.8 349" style="enable-background:new 0 0 763.8 349;" xml:space="preserve">
<style type="text/css">
	.st0{fill:#FFFFFF;}
	.st1{fill:#008144;}
	.st2{fill:none;}
	.st3{fill:#F6E300;}
</style>
<g>
	<rect x="-0.1" y="0.3" class="st0" width="763.3" height="349.5"/>
	<rect x="7.3" y="7.6" class="st1" width="748.5" height="335"/>
	<g>
		<g>
			<g>
				<g>
					<path class="st0" d="M281.1,118.6c18.8,0,30.5,7.7,35.6,21.3c1.2,3.5,0.4,5.4-3.3,6.6l-13.1,4.6c-3.8,1.1-5.2,0.5-6.6-3.3
						c-2.2-5.5-5.9-7.9-12.7-7.9c-9.6,0-13.4,4.2-13.4,12.7v22.2c0,8.5,3.8,12.7,13.4,12.7c6.8,0,10.7-2.7,12.7-7.9
						c1.5-3.8,2.9-4.6,6.6-3.3l13.1,4.6c3.7,1.2,4.5,3,3.3,6.6c-5.1,13.7-16.8,21.4-35.6,21.4c-24,0-37.6-13.1-37.6-34.2v-22
						C243.5,131.7,257.1,118.6,281.1,118.6z"/>
					<path class="st0" d="M361.2,187.6c8.4,0,12.7-4,12.7-11.2v-50.8c0-3.8,1.2-5.1,5.1-5.1h13.8c3.9,0,5.2,1.3,5.2,5.1v49.7
						c0,20.5-12.7,33.7-36.9,33.7c-24,0-36.7-13.2-36.7-33.7v-49.7c0-3.8,1.2-5.1,5.1-5.1h13.8c3.9,0,5.2,1.3,5.2,5.1v50.8
						C348.6,183.5,352.8,187.6,361.2,187.6z"/>
					<path class="st0" d="M414.4,120.4h14.4c3.7,0,4.9,1.2,4.9,4.9v76.9c0,3.7-1.2,4.9-4.9,4.9h-14.4c-3.7,0-4.9-1.2-4.9-4.9v-76.9
						C409.5,121.7,410.7,120.4,414.4,120.4z"/>
					<path class="st0" d="M519.9,207.1h-13.2c-6.3,0-8.2-1.4-9.2-5.1l-2.8-8.8h-26.4l-2.8,8.8c-1.2,3.8-2.8,5.1-8.9,5.1h-12.8
						c-3.8,0-4.5-1.7-3.3-5l28.1-77.4c1.2-3.5,2.8-4.3,6.3-4.3h13.9c3.5,0,5.1,0.9,6.3,4l28.2,77.6
						C524.6,205.4,523.5,207.1,519.9,207.1z M482,142.7h-1.2c0,0,0.1,8.8-2.3,17L474,174h15.3l-4.5-14.3
						C482.3,151.4,482,142.7,482,142.7z"/>
					<path class="st0" d="M603.4,143.5c0,8.2-2.6,13.7-8.8,17.9v0.5c7.8,3.4,12.3,10.4,12.3,21c0,15.7-12.8,24.2-30,24.2h-36.2
						c-3.9,0-5.2-1.4-5.2-5.1v-76.4c0-3.9,1.3-5.2,5.2-5.2h35.8C593.3,120.3,603.4,128.6,603.4,143.5z M571.4,140h-11.8v13.4h11.8
						c4.9,0,7.4-1.8,7.4-6.6C578.9,142.1,576.3,140,571.4,140z M573.8,173.1h-14.2v14.3h14.2c5.2,0,7.8-2.1,7.8-7.2
						C581.6,175.2,579,173.1,573.8,173.1z"/>
					<path class="st0" d="M687.6,207.1h-13.2c-6.3,0-8.2-1.4-9.2-5.1l-2.8-8.8h-26.4l-2.8,8.8c-1.2,3.8-2.8,5.1-8.9,5.1h-12.8
						c-3.8,0-4.5-1.7-3.3-5l28.1-77.4c1.2-3.5,2.8-4.3,6.3-4.3h13.9c3.5,0,5.1,0.9,6.4,4l28.2,77.6
						C692.4,205.4,691.3,207.1,687.6,207.1z M660.8,94.1l6.2,7.1c2.2,2.4,2.3,3.8-0.6,4.9l-22.2,6.8c-2.9,0.8-4.3,1.1-5.6-0.6
						l-3.3-4c-2-2.3-1.8-3.4,0.2-4.6l17.2-9.9C655.5,92.1,658.3,91.4,660.8,94.1z M649.8,142.7h-1.2c0,0,0.1,8.8-2.3,17l-4.5,14.4
						H657l-4.5-14.3C650,151.4,649.8,142.7,649.8,142.7z"/>
				</g>
				<g>
					<path class="st0" d="M294.4,225.8h9.6c6.7,0,10.9,2.7,10.9,8.3c0,5.6-4.2,8.4-10.9,8.4h-6.3v14.6h-3.4V225.8z M297.7,239.6h5.4
						c6,0,8.1-2.5,8.1-5.5c0-3-2.1-5.4-8.1-5.4h-5.4V239.6z"/>
					<path class="st0" d="M333.9,257.1h-3.4v-31.3h10.2c6.7,0,10.9,2.7,10.9,8.3c0,4.4-3,7.7-8.5,8.1l9.5,14.9h-4.1l-9.1-14.6h-5.6
						V257.1z M333.9,239.6h6c6,0,8.1-2.5,8.1-5.5c0-3-2.1-5.4-8.1-5.4h-6V239.6z"/>
					<path class="st0" d="M370.9,254.2h17.7v2.9h-21.1v-31.3h20.5v2.9h-17.1v10.7h16v2.9h-16V254.2z"/>
					<path class="st0" d="M408,257.1h-3.4v-31.3h19.9v2.9H408v10.7h15.4v2.9H408V257.1z"/>
					<path class="st0" d="M443.3,254.2H461v2.9h-21.1v-31.3h20.5v2.9h-17.1v10.7h16v2.9h-16V254.2z"/>
					<path class="st0" d="M480.3,257.1H477v-31.3h3.4V257.1z"/>
					<path class="st0" d="M509.3,257.1h-3.4v-28.4h-11.1v-2.9h25.5v2.9h-11.1V257.1z"/>
					<path class="st0" d="M558.4,245.4c0,5.2-2.2,12.5-12.1,12.5c-9.9,0-12.1-7.3-12.1-12.5v-19.7h3.4v19.3c0,9,6.2,9.9,8.7,9.9
						c2.5,0,8.7-0.9,8.7-9.9v-19.3h3.4V245.4z"/>
					<path class="st0" d="M579.6,257.1h-3.4v-31.3h10.2c6.7,0,10.9,2.7,10.9,8.3c0,4.4-3,7.7-8.4,8.1l9.5,14.9h-4.1l-9.1-14.6h-5.6
						V257.1z M579.6,239.6h6c6,0,8.1-2.5,8.1-5.5c0-3-2.1-5.4-8.1-5.4h-6V239.6z"/>
					<path class="st0" d="M612.7,257.1h-3.9l14.4-31.3h3.3l14.4,31.3h-3.9l-3.6-8.2h-16.9L612.7,257.1z M617.6,245.9h14.4l-7.1-16.5
						L617.6,245.9z"/>
				</g>
			</g>
		</g>
		<g>
			<path class="st2" d="M162.6,216.3c1.7,0,3-1.4,3-3c0-1.7-1.3-3-3-3c-1.7,0-3,1.3-3,3C159.6,215,160.9,216.3,162.6,216.3z"/>
			<path class="st2" d="M162.4,223.1c-1.7,0-3.1,1.4-3.1,3.1c0,1.7,1.4,3.1,3.1,3.1c1.7,0,3.1-1.4,3.1-3.1
				C165.5,224.5,164.1,223.1,162.4,223.1z"/>
			<path class="st2" d="M174.6,226.9c1.7,0,3-1.3,3-3c0-1.7-1.3-3-3-3c-1.7,0-3,1.3-3,3C171.6,225.5,172.9,226.9,174.6,226.9z"/>
			<path class="st2" d="M168.6,205.2c1.7,0,3-1.3,3-3s-1.3-3-3-3c-1.6,0-3,1.3-3,3S166.9,205.2,168.6,205.2z"/>
			<path class="st2" d="M152.3,228c-1.7,0-3,1.4-3,3c0,1.6,1.4,3,3,3c1.7,0,3-1.3,3-3C155.3,229.4,153.9,228,152.3,228z"/>
			<path class="st2" d="M116.3,220.2c-0.7,0-1.3,0.2-1.8,0.5c-0.2,0.5-0.6,0.8-1,1.1c-0.3,0.5-0.4,1-0.4,1.6c0,1.8,1.4,3.2,3.2,3.2
				c1.8,0,3.2-1.5,3.2-3.2C119.5,221.6,118,220.2,116.3,220.2z"/>
			<path class="st3" d="M193.7,227.9c0.1-0.3,0.2-0.6,0.2-0.9c0-0.9-0.4-1.6-1-2.1c0.1-0.4,0.2-0.8,0.2-1.2c0-1.8-1-3.4-2.5-4.2
				c0-0.2,0.1-0.3,0.1-0.5c0-0.8-0.4-1.5-0.9-1.9c0.7-0.8,1.1-1.9,1.1-3c0-2.7-2.1-4.8-4.8-4.8c-0.3,0-0.5,0.1-0.8,0.1
				c0.1-0.3,0.2-0.6,0.2-0.9c0-0.9-0.5-1.7-1.3-2.2c0.1-0.3,0.2-0.7,0.2-1.1c0-1.2-0.8-2.2-1.8-2.6c0.9-0.5,1.5-1.4,1.5-2.4
				c0-1.6-1.3-2.8-2.9-2.8c-0.5,0-0.9,0.1-1.3,0.3c-0.2-0.7-0.7-1.3-1.3-1.7c0,0,0,0,0,0h-20.4c-0.2,2-1.8,3.5-3.9,3.5
				c-2,0-3.7-1.6-3.8-3.5H122c0.1,0.4,0.3,0.7,0.6,0.9c-2.1,0.1-3.7,1.7-3.7,3.7c0,0.8,0.2,1.5,0.6,2.1l-0.1,0.1
				c-0.5-0.3-1.1-0.5-1.7-0.5c-1.9,0-3.5,1.6-3.5,3.5c0,1.4,0.8,2.5,1.9,3.1l-0.2,0.3c-2.3,0.4-4.1,2.3-4.1,4.8
				c0,0.7,0.2,1.3,0.4,1.8c-1.4,0.1-2.5,1.2-2.5,2.5c0,0.5,0.2,1,0.5,1.4c-0.3-0.1-0.6-0.2-0.9-0.2c-1.4,0-2.6,1.1-2.6,2.6
				c0,0.1,0,0.2,0,0.3c-1.5,0.1-2.7,1.3-2.7,2.9c0,1.2,0.7,2.2,1.8,2.7l-0.8,1.4c0,0,34.4,6.4,46.1,6.3c10.7-0.1,43.3-6.3,43.3-6.3
				L193.7,227.9z M116.3,226.6c-1.8,0-3.2-1.5-3.2-3.2c0-0.6,0.2-1.1,0.4-1.6c0.3-0.5,0.4-0.6,1-1.1c0.5-0.3,1.1-0.5,1.8-0.5
				c1.8,0,3.2,1.4,3.2,3.2C119.5,225.2,118,226.6,116.3,226.6z M126.3,220.7c-1.7,0-3-1.3-3-3c0-1.7,1.3-3,3-3c1.7,0,3,1.4,3,3
				C129.3,219.4,128,220.7,126.3,220.7z M129.3,206.4c0-1.7,1.3-3,3-3c1.7,0,3,1.3,3,3s-1.3,3-3,3
				C130.6,209.4,129.3,208.1,129.3,206.4z M134.9,226.9c-1.7,0-3-1.3-3-3c0-1.7,1.4-3,3-3c1.7,0,3,1.3,3,3
				C137.9,225.5,136.5,226.9,134.9,226.9z M138.5,200.2c0-1.7,1.3-3,3-3c1.6,0,3,1.3,3,3c0,1.6-1.3,3-3,3
				C139.8,203.2,138.5,201.8,138.5,200.2z M145.4,210.4c2.1,0.6,4.1,1.2,6.1,1.9c1.4,0.5,2.3,1.8,1.9,3.4c-0.4,1.3-2,2.4-3.4,1.9
				c-2-0.8-4.1-1.3-6.1-1.9C140.6,214.7,142,209.5,145.4,210.4z M152.3,234c-1.7,0-3-1.3-3-3c0-1.7,1.4-3,3-3c1.7,0,3,1.4,3,3
				C155.3,232.7,153.9,234,152.3,234z M162.4,229.3c-1.7,0-3.1-1.4-3.1-3.1c0-1.7,1.4-3.1,3.1-3.1c1.7,0,3.1,1.4,3.1,3.1
				C165.5,227.9,164.1,229.3,162.4,229.3z M162.6,216.3c-1.7,0-3-1.4-3-3c0-1.7,1.3-3,3-3c1.7,0,3,1.3,3,3
				C165.6,215,164.2,216.3,162.6,216.3z M168.6,205.2c-1.6,0-3-1.3-3-3s1.3-3,3-3c1.7,0,3,1.3,3,3S170.2,205.2,168.6,205.2z
				 M174.6,226.9c-1.7,0-3-1.3-3-3c0-1.7,1.3-3,3-3c1.7,0,3,1.3,3,3C177.6,225.5,176.2,226.9,174.6,226.9z M181.4,211.4
				c-1,1.2-2,2.4-3,3.5c-0.7,0.8-1.9,1-2.8,0.3c-0.8-0.6-1-2-0.3-2.8c1.1-1.1,2.1-2.3,3-3.5C179.9,206.9,183,209.4,181.4,211.4z
				 M185.8,226.4c-1.3,0-2.4-1.1-2.4-2.4c0-0.4,0.1-0.8,0.3-1.2c0.2-0.3,0.4-0.5,0.7-0.8c0.4-0.2,0.8-0.4,1.3-0.4
				c1.3,0,2.4,1,2.4,2.4C188.2,225.4,187.1,226.4,185.8,226.4z"/>
			<path class="st2" d="M185.8,221.7c-0.5,0-0.9,0.1-1.3,0.4c-0.1,0.3-0.4,0.6-0.7,0.8c-0.2,0.4-0.3,0.7-0.3,1.2
				c0,1.3,1,2.4,2.4,2.4c1.3,0,2.4-1.1,2.4-2.4C188.2,222.8,187.1,221.7,185.8,221.7z"/>
			<path class="st2" d="M126.3,214.7c-1.7,0-3,1.4-3,3c0,1.7,1.3,3,3,3c1.7,0,3-1.3,3-3C129.3,216.1,128,214.7,126.3,214.7z"/>
			<path class="st2" d="M134.9,220.9c-1.7,0-3,1.3-3,3c0,1.7,1.4,3,3,3c1.7,0,3-1.3,3-3C137.9,222.2,136.5,220.9,134.9,220.9z"/>
			<path class="st2" d="M141.5,197.2c-1.7,0-3,1.3-3,3c0,1.6,1.3,3,3,3c1.6,0,3-1.3,3-3C144.5,198.5,143.2,197.2,141.5,197.2z"/>
			<path class="st2" d="M135.3,206.4c0-1.7-1.3-3-3-3c-1.7,0-3,1.3-3,3s1.3,3,3,3C134,209.4,135.3,208.1,135.3,206.4z"/>
			<path class="st2" d="M178.4,108.6C178.4,108.6,178.4,108.6,178.4,108.6C178.4,108.6,178.3,108.6,178.4,108.6
				C178.3,108.6,178.3,108.6,178.4,108.6z"/>
			<path class="st2" d="M179.9,193.6c0-1.5-1.3-2.8-2.9-2.8c0.2-0.6,0.4-1.2,0.4-1.9c0-2.4-1.7-4.3-3.9-4.7c0.3-0.4,0.5-1,0.5-1.5
				c0-1.2-0.8-2.3-2-2.7c0.3-0.4,0.5-0.9,0.5-1.5c0-1.6-1.3-2.8-2.9-2.8c0,0,0,0-0.1,0c-0.1-1.1-0.9-2-1.9-2.3
				c-0.2-1.2-1-2.2-2.1-2.7c0.3-0.5,0.4-1.1,0.4-1.7c0-2.1-1.7-3.7-3.7-3.7c-0.6,0-1.1,0.1-1.6,0.4c-0.5-0.3-1-0.7-1.5-1
				c-0.3-1.8-1.8-3.1-3.7-3.1c-0.9,0-1.7,0.3-2.3,0.8c-0.5-0.6-1.3-0.9-2.1-0.9c-0.8,0-1.6,0.4-2.1,0.9c-0.7-0.8-1.7-1.3-2.8-1.3
				c-2.1,0-3.7,1.7-3.7,3.7c0,0.1,0,0.2,0,0.2c-0.4-0.1-0.8-0.2-1.2-0.2c-2.1,0-3.7,1.7-3.7,3.7c0,0.2,0,0.4,0.1,0.6
				c-0.3-0.1-0.6-0.2-1-0.2c-2.1,0-3.7,1.7-3.7,3.7c0,1,0.4,1.8,1,2.5c-1.9,0.2-3.4,1.8-3.4,3.7c0,0.5,0.1,1,0.3,1.5
				c-2,0.1-3.6,1.7-3.6,3.7c0,0.9,0.4,1.8,0.9,2.5c-0.3-0.1-0.6-0.1-0.9-0.1c-2.1,0-3.9,1.7-3.9,3.8c0,1.2,0.5,2.2,1.4,2.9l0,0
				c-0.2,0-0.3-0.1-0.5-0.1c-1.3,0-2.3,1-2.3,2.3c0,0.2,0.1,0.5,0.1,0.7h28.4c0-0.1,0-0.2,0-0.4c0-2.1,1.7-3.9,3.9-3.9
				c2.1,0,3.9,1.7,3.9,3.9c0,0.1,0,0.2,0,0.4h20.4C179.3,195.5,179.9,194.7,179.9,193.6z M129.8,194.9c-1.1,0-1.9-0.9-1.9-2
				s0.9-2,1.9-2c1.1,0,1.9,0.9,1.9,2S130.8,194.9,129.8,194.9z M144.8,177.5c-1.7,0-3-1.3-3-3c0-1.7,1.3-3,3-3c1.7,0,3,1.3,3,3
				C147.8,176.2,146.5,177.5,144.8,177.5z M166.6,183.7c-1.1,0-2.1-0.9-2.1-2.1c0-1.2,0.9-2.1,2.1-2.1c1.1,0,2.1,0.9,2.1,2.1
				C168.7,182.7,167.8,183.7,166.6,183.7z"/>
			<path class="st2" d="M207.6,143.7l-55.4,0.2h-2.4l-58.6,0.2c0,0,5.3,10.6,6.6,21.4c1.6,13.4-5.3,31.6-5.3,31.6s-0.2,0.4-0.4,1.1
				c0,0,0,0.1-0.1,0.2c-0.4,1.3-1.2,3.8-1.7,7c-1.4,7.8-1.8,20.2,4.8,32.7c6.5,12.2,24.1,17.5,24.1,17.5s6.2,2.4,16.5,5.9
				c10,3.5,13.6,8.3,13.6,8.3s3.6-4.8,13.6-8.3c10.3-3.6,16.5-5.9,16.5-5.9s17.6-5.2,24.1-17.5c6.6-12.5,6.2-24.9,4.8-32.7
				c-0.6-3.2-1.3-5.6-1.7-7c0-0.1,0-0.1-0.1-0.2c-0.2-0.7-0.4-1.1-0.4-1.1s-6.9-18.2-5.3-31.6C202.2,154.6,207.6,143.7,207.6,143.7z
				"/>
			<path class="st3" d="M226.4,95.3c-10.1,9.8-18.2,6.6-25.3,7.5c-2.8,0.4-5.4,1.4-8,4.1c0.4-3.7,5.8-8.6,10.6-11.3
				c-5-0.3-9.3,0.6-13.2,2.4c0.5-2.3,0.6-4.9,0.2-7.7c-4.4,11.3-24.6-0.3-26.9,11.9c2.8,2.4,3.2,7.7-0.3,10.1c-1,0.6-2.1,1-3.2,1
				c0.2-0.5,0.3-0.9,0.5-1.5c1.3-4.1,1.8-8.1,1.5-12.2c-0.3-3.3-0.8-6.4-1.9-9.5c-0.8-2.2-1.5-3.8-2.7-5.6c0-0.3,0.2-0.6,1.2-0.4
				c0.8,0.2,1.3,0.6,2.2,1.4c0.1-1.3-3.4-3.6-4.9-4.1c4-1.5,9.8-5.1,9.5-7.6c-0.7,0.8-0.9,1.1-1,1.2c-3,2.5-6.6,3.5-10.4,4.1
				c-0.7,0.1-1.2,0-2.1-0.1c-0.3,0-0.9-0.4-0.9-0.9c0-0.3,0.4-0.7,0.6-0.9c0.5-0.4,1-0.7,3.5-1.2c1.7-0.3,3.4-0.3,5.2,0
				c-0.5-0.3-1.3-0.6-1.5-0.6c-5.5-1.3-10-0.9-15.2,0.9c-0.2,0-0.4,0-0.6,0c-0.2,0-0.4,0-0.6,0c-0.2,0-0.5,0-0.7,0
				c-0.6,0-1.1,0-1.6,0.1c-1.7,0.2-3.3,0.6-4.5,1.2c-1.6,0.6-3.2,1.3-4.7,2.1c-3.5,1.9-6.9,3.9-10.3,6.3c2.9,0.5,5.9-0.2,8.8,0.6
				c-2.3,1.4-4.9,1.7-7.5,3.1c3.6-0.1,6.8-0.2,9.9-0.2c0.2,0,0.6,0.1,0.7,0.3c1.8,2.2,4.3,1.3,6.6,0.8c2.3-0.5,4.6-1.5,7-1.5
				c2.1,0.1,3,2,2.7,3.7c-0.3,2-1.1,4-2.1,5.9c-1.8,3.9-4.6,7-7.8,9.9c-1,0.9-3.4,2.7-5.6,3.2c-2-1.7-3.5-6.2,0.3-9.5
				c-2.5-12.5-22.4-0.5-26.9-12c-0.5,2.7-0.4,5.2,0.1,7.4c-3.7-1.6-7.9-2.4-12.6-2.1c4.8,2.7,10.2,7.6,10.6,11.3
				c-2.6-2.7-5.2-3.7-8-4.1c-7.1-1-15.2,2.2-25.3-7.5c1.5,9.5,9,23.6,20.5,26c-2.7,0.1-4.7,0.7-8.1,4.2c7,0.3,9.9,4.3,12.9,7.9
				c0.3,0.1,0.7,0.3,1,0.5c-1.2-2.1,0.1-6.1,1-8c1,2.8,3.9,4,6.9,5.4c0.9-2.1,1.8-3.7,2.5-4.5c2.5,3,4.5,4.6,6.2,5.4
				c-0.2-4,0.6-7.6,2.6-10.2c1-1.4,2.3-2.4,4-3c-0.3,1.5-0.3,2.8-0.1,3.8c0.8,3.5,4.3,4.4,7.9,6.7c0.7-1.9,1.1-4,1-6.7
				c0-1.2-0.2-2.5-0.4-3.9c9.5,5.3,6.3,8.8,7.6,11c-0.7-17.9,15.6-16.5,12.1-26.2c9.6,6.6,3.2,18.2,9.1,23.4c2.7-4,3.6-6.5,1.6-10.1
				c4.3,1.9,6.4,2.8,8.3,6.9c0.9,2,1,3,1.5,5c3.2-1.8,6.2-2.9,6.8-6c0.2-1,0.2-2.2-0.1-3.7c1.7,0.6,3,1.7,4.1,3.2
				c1.9,2.6,2.7,6.2,2.5,10.1c1.7-0.8,3.7-2.4,6.2-5.4c0.7,0.9,1.7,2.6,2.6,4.9c3.3-1.6,6.5-2.7,7.6-5.8c0.9,1.8,2.2,5.9,0.9,8
				c0.3-0.2,0.7-0.3,1-0.5c3.1-3.6,5.9-7.6,12.9-7.9c-3.4-3.4-5.3-4-8.1-4.2C217.4,118.9,224.9,104.8,226.4,95.3z M136.5,82.2
				c-1.3,0.4-3.2-1-3.2-1l6.6-2.2C139.9,79.1,138.2,81.7,136.5,82.2z"/>
			<path class="st3" d="M209.2,152.3c3.1-7.5,7.3-13.4,7.3-13.4h-64.3h-2.6H82.2c0,0,3.9,5.5,6.9,12.6c1.5,3.6,2.9,7.6,3.4,11.6
				c1.1,8.9-1.3,19.8-3.4,26.9c-1.3,4.5-2.4,7.5-2.4,7.5s-9.1,22.1,2.9,44.5c7.2,13.3,26.5,19,26.5,19s6.8,2.5,18.1,6.5
				c11,3.8,15,9.1,15,9.1s4-5.3,15-9.1c11.3-3.9,18.1-6.5,18.1-6.5s19.4-5.7,26.5-19c12-22.4,2.9-44.5,2.9-44.5s-1.4-3.6-2.8-8.8
				c-2-7.1-4.1-17.2-3-25.6C206.6,159.4,207.8,155.7,209.2,152.3z M206.1,197.1c0,0,0.2,0.4,0.4,1.1c0,0,0,0.1,0.1,0.2
				c0.4,1.3,1.2,3.8,1.7,7c1.4,7.8,1.8,20.2-4.8,32.7c-6.5,12.2-24.1,17.5-24.1,17.5s-6.2,2.4-16.5,5.9c-10,3.5-13.6,8.3-13.6,8.3
				s-3.6-4.8-13.6-8.3c-10.3-3.6-16.5-5.9-16.5-5.9s-17.6-5.2-24.1-17.5c-6.7-12.5-6.2-24.9-4.8-32.7c0.6-3.2,1.3-5.6,1.7-7
				c0-0.1,0-0.1,0.1-0.2c0.2-0.7,0.4-1.1,0.4-1.1s6.9-18.2,5.3-31.6c-1.3-10.8-6.6-21.4-6.6-21.4l58.6-0.2h2.4l55.4-0.2
				c0,0-5.4,10.9-6.8,21.7C199.2,178.9,206.1,197.1,206.1,197.1z"/>
			<path class="st3" d="M166.3,187.7c-1.5,0-2.7,1.2-2.7,2.7c0,1.5,1.2,2.7,2.7,2.7c1.5,0,2.7-1.2,2.7-2.7
				C169,189,167.8,187.7,166.3,187.7z"/>
			<path class="st3" d="M156.2,169.9c-1.3,0-2.4,1.1-2.4,2.4c0,1.4,1.1,2.4,2.4,2.4c1.3,0,2.4-1.1,2.4-2.4
				C158.7,171,157.6,169.9,156.2,169.9z"/>
			<path class="st3" d="M166.6,179.5c-1.1,0-2.1,0.9-2.1,2.1c0,1.1,0.9,2.1,2.1,2.1c1.1,0,2.1-0.9,2.1-2.1
				C168.7,180.4,167.8,179.5,166.6,179.5z"/>
			<path class="st3" d="M144.8,171.5c-1.7,0-3,1.3-3,3c0,1.7,1.3,3,3,3c1.7,0,3-1.3,3-3C147.8,172.8,146.5,171.5,144.8,171.5z"/>
			<path class="st3" d="M138.8,183.8c-1.7,0-3,1.3-3,3c0,1.7,1.3,3,3,3c1.7,0,3-1.3,3-3C141.8,185.2,140.5,183.8,138.8,183.8z"/>
			<path class="st3" d="M129.8,190.9c-1.1,0-1.9,0.9-1.9,2s0.9,2,1.9,2c1.1,0,1.9-0.9,1.9-2S130.8,190.9,129.8,190.9z"/>
			<path class="st3" d="M105.2,167c1.5,11.8-4.8,27.9-4.8,27.9s-0.1,0.3-0.3,0.9c0,0,0,0.1-0.1,0.2h22c-0.1-0.2-0.1-0.4-0.1-0.7
				c0-1.3,1-2.3,2.3-2.3c0.2,0,0.4,0.1,0.5,0.1l0,0c-0.8-0.7-1.4-1.7-1.4-2.9c0-2.1,1.7-3.8,3.9-3.8c0.3,0,0.6,0,0.9,0.1
				c-0.6-0.7-0.9-1.5-0.9-2.5c0-2,1.6-3.7,3.6-3.7c-0.2-0.5-0.3-1-0.3-1.5c0-1.9,1.5-3.5,3.4-3.7c-0.6-0.7-1-1.5-1-2.5
				c0-2.1,1.7-3.7,3.7-3.7c0.3,0,0.7,0,1,0.2c0-0.2-0.1-0.4-0.1-0.6c0-2.1,1.7-3.7,3.7-3.7c0.4,0,0.8,0.1,1.2,0.2c0-0.1,0-0.2,0-0.2
				c0-2.1,1.7-3.7,3.7-3.7c1.1,0,2.1,0.5,2.8,1.3c0.5-0.6,1.3-0.9,2.1-0.9c0.9,0,1.6,0.4,2.1,0.9c0.6-0.5,1.4-0.8,2.3-0.8
				c1.9,0,3.4,1.4,3.7,3.1c0.5,0.3,1,0.6,1.5,1c0.5-0.2,1-0.4,1.6-0.4c2.1,0,3.7,1.7,3.7,3.7c0,0.6-0.2,1.2-0.4,1.7
				c1.1,0.5,1.9,1.5,2.1,2.7c1,0.4,1.8,1.2,1.9,2.3c0,0,0.1,0,0.1,0c1.6,0,2.9,1.3,2.9,2.8c0,0.6-0.2,1-0.5,1.5c1.1,0.4,2,1.4,2,2.7
				c0,0.6-0.2,1.1-0.5,1.5c2.2,0.4,3.9,2.4,3.9,4.7c0,0.7-0.2,1.3-0.4,1.9c1.6,0,2.9,1.3,2.9,2.8c0,1-0.6,1.9-1.4,2.4h20.2
				c0-0.1,0-0.1-0.1-0.2c-0.2-0.6-0.3-0.9-0.3-0.9s-6.2-16.1-4.7-27.9c1-8.2,4.5-15.4,5.5-17.3H99.4
				C100.3,151.4,104.1,158.6,105.2,167z"/>
			<path class="st3" d="M158.1,196c0-0.1,0-0.2,0-0.4c0-2.1-1.7-3.9-3.9-3.9c-2.1,0-3.9,1.7-3.9,3.9c0,0.1,0,0.2,0,0.4H158.1z"/>
			<path class="st3" d="M154.5,181.2c-1.4,0.5-2.8,1.2-4.1,1.8c-2.2,1-0.6,4.5,1.6,3.5c1.4-0.6,2.7-1.3,4.1-1.8
				c1-0.4,1.3-1.6,0.9-2.5C156.5,181.1,155.4,180.8,154.5,181.2z"/>
		</g>
	</g>
</g>
</svg>
